<svg xmlns="http://www.w3.org/2000/svg" version="1.1" xmlns:xlink="http://www.w3.org/1999/xlink" xmlns:svgjs="http://svgjs.dev/svgjs" width="1000" height="1000" viewBox="0 0 1000 1000"><rect width="1000" height="1000" fill="#0718c4"></rect><g transform="matrix(0.7,0,0,0.7,150.0000000000001,106.25)"><svg viewBox="0 0 320 360" data-background-color="#0718c4" preserveAspectRatio="xMidYMid meet" height="1125" width="1000" xmlns="http://www.w3.org/2000/svg" xmlns:xlink="http://www.w3.org/1999/xlink"><g id="tight-bounds" transform="matrix(1,0,0,1,0,0)"><svg viewBox="0 0 320 360" height="360" width="320"><g><svg></svg></g><g><svg viewBox="0 0 320 360" height="360" width="320"><g><path xmlns="http://www.w3.org/2000/svg" d="M20.961 227.22l3.726 4.658-1.863-6.056c-0.466-2.795-3.726 0.466-1.863 1.398M25.153 224.425c1.397 2.329 2.795 4.658 2.795 6.987 0 3.261 2.795 4.658 5.123 5.589-3.261-3.726-5.124-13.974-7.918-12.576M204.017 26.929c7.918 0 15.371-0.932 23.756 0.931 20.495 5.124 37.729 15.371 49.374 29.811l32.606 52.169c1.397 13.042 4.192 27.482 3.726 43.319 3.261 0 2.795-4.658 6.521-5.59-3.726 9.316-5.59 20.961-6.521 34.469-2.329-7.453 0-18.632 0.466-24.687-3.261 5.124-5.124 1.397-5.124-0.932 0.466-3.726-1.397-3.261-2.795-4.658-5.124-4.658-8.384-9.782-12.11-17.7 2.329-6.055 2.795-14.905-4.658-19.563-2.329-1.397-5.124-3.726-6.521-7.453-1.863-5.124-5.124-11.179-4.193-19.097 0.466-2.329-6.987 5.124-11.179 1.863-18.166-12.576-36.332-27.016-58.224-39.127-11.645 0-20.029-4.192-24.221-9.316-3.726-4.658-0.932-10.713 4.658-11.179 3.261 0 6.987-0.932 9.782 0.932 0.466-1.863 2.329-4.192 4.657-4.192M157.904 16.215l0.932 0.466c4.658 0.932 6.987 7.453 12.11 5.124 0 3.261 0.466 6.521-0.466 8.85-1.397 3.726-5.59 3.726-8.85 3.726-31.208-1.863-49.374 11.179-68.471 22.358-5.124 3.261-10.713 5.59-14.906 9.782-20.029 18.632-41.921 35.866-47.045 70.335l-4.192 38.195c-0.466 4.192-5.124 8.384-4.192 13.508l3.26 22.824c-3.261-3.261-5.124 0.932-4.192 2.795 0.466 1.397 2.329 6.055 5.124 1.863 3.726 6.987 7.453 20.495 12.576 26.55 15.837 18.632 36.332 35.4 53.101 52.169 4.192-0.932 7.453-0.932 8.384-3.727 1.397 2.795-1.397 5.59-3.726 6.056 7.453 4.658 15.837 8.85 27.016 9.781 14.44 0.932 27.948 3.261 40.524 6.522 6.521-1.863 13.042-2.795 20.029-3.261 2.329 0 3.726-3.726 6.521-4.658l0.466-4.658c2.795 4.192 2.329-1.397 0.466-4.192 3.261 2.795 4.192 5.124 5.589 6.987 0-1.397 3.726-6.521 3.727-0.466l0.931-6.055c1.397-0.932 1.863 5.124 3.261 0.931 1.397-4.192 4.192-0.932 6.987-2.329-0.932 1.863-0.466 5.59 2.794 3.261l3.727-3.261c2.329 5.59 6.055 3.261 7.918 2.329 20.495-13.042 40.99-28.413 60.553-43.784l-0.466 6.055 2.329-7.453c2.329 2.329 4.192 0.466 5.124-0.931 2.795-4.658 6.521-9.316 12.577-13.508-7.453 20.029-16.303 35.866-27.482 48.908l-4.658 5.59c0 3.261-0.932 7.453-4.658 7.918-1.863 0.466-5.59-0.932-8.384 1.863-1.397 1.863 3.261 5.59-0.466 2.795-3.261-2.329-6.521 0-10.248 0.932-2.795 0.932 1.863 3.726 2.795 5.589 0.932 1.863 1.863 3.726 1.398 6.056l-5.124-5.59c-6.055 3.261-9.782 9.316-14.906 13.974-2.329 1.863-1.397 5.124-1.397 7.918-3.261 0-6.987-0.932-8.85 0.932-1.397 1.863-0.932 4.658-0.932 7.453-4.658-0.466-5.124-7.453-9.315-6.056-4.192 0.932-8.85 1.397-12.577 3.727 2.795 5.59-4.658 2.329-3.726 3.26-6.987-4.192-13.042-7.453-20.495-4.658-15.837-5.124-35.4-2.795-49.84-0.931 0-2.329 0.466-4.658-0.466-5.124-0.932 2.329-3.726 1.397-3.26 1.397-8.85-6.055-17.7-9.782-27.016-14.905-8.384 0.932-16.303-3.261-18.632-5.59-6.521-6.055-13.974-2.795-20.029-4.192-13.042-3.261-17.7-16.769-19.098-26.084-0.932-4.658-4.658-6.521-6.055-6.056-6.055-19.563-15.371-37.263-22.824-55.429-1.863-4.658-1.397-9.316-1.397-14.44 2.329 0.932 4.658 0.466 4.192-2.794-2.329-15.371-7.918-27.016-13.974-38.195 3.261-15.837 3.726-34.469 11.179-48.443 6.521-12.576 18.632-19.098 27.016-29.811 2.795-3.726 2.795-8.85 5.59-12.11 9.316-9.316 18.632-19.098 28.879-27.482 4.658-3.726 10.247 0 17.234-1.397 2.329-8.384 11.645-15.837 20.495-13.508 3.726 0.932 11.179-8.85 13.508-9.782 3.726-1.397 1.863 3.726 1.863 6.987 8.85-6.987 20.961-10.713 32.14-14.906" fill="#7bb4ff" fill-rule="nonzero" stroke="none" stroke-width="1" stroke-linecap="butt" stroke-linejoin="miter" stroke-miterlimit="10" stroke-dasharray="" stroke-dashoffset="0" font-family="none" font-weight="none" font-size="none" text-anchor="none" style="mix-blend-mode: normal" data-fill-palette-color="tertiary"></path></g><g transform="matrix(1,0,0,1,64.00000000000001,118.49764274489263)"><svg viewBox="0 0 191.99999999999997 123.00471451021475" height="123.00471451021475" width="191.99999999999997"><g><svg viewBox="0 0 191.99999999999997 123.00471451021475" height="123.00471451021475" width="191.99999999999997"><g><svg viewBox="0 0 191.99999999999997 123.00471451021475" height="123.00471451021475" width="191.99999999999997"><g><svg viewBox="0 0 191.99999999999997 123.00471451021475" height="123.00471451021475" width="191.99999999999997"><g id="textblocktransform"><svg viewBox="0 0 191.99999999999997 123.00471451021475" height="123.00471451021475" width="191.99999999999997" id="textblock"><g><svg viewBox="0 0 191.99999999999997 123.00471451021475" height="123.00471451021475" width="191.99999999999997"><g transform="matrix(1,0,0,1,0,0)"><svg width="191.99999999999997" viewBox="-3.5199999809265137 -50.59000015258789 93.20999908447266 59.720001220703125" height="123.00471451021475" data-palette-color="#76acff"><path d="M40.09-1.81L40.09-1.81Q40.09-1.32 40.04-1.07L40.04-1.07Q39.79-0.98 39.65-0.81 39.5-0.63 39.16-0.68L39.16-0.68Q39.06 0.05 38.67 0.54 38.28 1.03 37.87 1.44 37.45 1.86 37.06 2.32 36.67 2.78 36.57 3.52L36.57 3.52Q35.84 3.91 35.13 4.57 34.42 5.22 33.89 5.47L33.89 5.47Q33.5 5.66 33.06 5.79 32.62 5.91 32.18 6.1L32.18 6.1Q30.76 6.74 29.27 7.42 27.78 8.11 26.17 8.11L26.17 8.11 25.83 8.11Q25.63 8.3 25.34 8.37 25.05 8.45 24.76 8.5 24.46 8.54 24.17 8.64 23.88 8.74 23.73 8.94L23.73 8.94Q23.19 8.74 22.56 8.74L22.56 8.74 22.22 8.74Q21.39 8.94 20.65 9.03 19.92 9.13 19.09 9.13L19.09 9.13Q17.63 9.13 16.16 8.94 14.7 8.74 13.23 8.59L13.23 8.59Q12.3 7.86 11.72 6.76 11.13 5.66 11.13 4.44L11.13 4.44Q11.13 3.52 11.52 2.71 11.91 1.9 12.55 1.27L12.55 1.27 12.7 1.27Q13.13 1.27 13.6 1.07 14.06 0.88 14.5 0.88L14.5 0.88Q14.99 0.88 15.31 1.27 15.63 1.66 15.8 2.2 15.97 2.73 16.02 3.3 16.06 3.86 16.06 4.2L16.06 4.2Q16.6 4.44 17.21 4.49 17.82 4.54 18.46 4.54L18.46 4.54Q19.09 4.54 19.87 4.47 20.65 4.39 21.46 4.22 22.27 4.05 23.02 3.81 23.78 3.56 24.32 3.17L24.32 3.17Q27 2.93 29.05 1.95 31.1 0.98 33.4-0.34L33.4-0.34Q33.5-0.88 33.81-1.2 34.13-1.51 34.13-2.15L34.13-2.15Q34.13-2.25 34.11-2.37 34.08-2.49 34.08-2.59L34.08-2.59Q33.11-3.81 32.06-4.74 31.01-5.66 29.35-5.96L29.35-5.96Q29.15-6.4 28.71-6.62 28.27-6.84 27.78-7.03 27.29-7.23 26.86-7.45 26.42-7.67 26.22-8.2L26.22-8.2Q24.9-8.45 23.51-8.81 22.12-9.18 21.14-10.16L21.14-10.16Q20.36-10.21 19.65-10.47 18.95-10.74 18.26-11.01 17.58-11.28 16.85-11.5 16.11-11.72 15.33-11.72L15.33-11.72Q15.14-12.06 14.79-12.26 14.45-12.45 14.04-12.6 13.62-12.74 13.26-12.92 12.89-13.09 12.7-13.43L12.7-13.43Q12.5-13.38 12.4-13.23 12.3-13.09 12.06-13.09L12.06-13.09 11.87-13.09Q11.77-13.38 11.47-13.5 11.18-13.62 11.13-14.01L11.13-14.01Q10.25-14.06 9.55-14.36 8.84-14.65 8.23-15.01 7.62-15.38 6.98-15.72 6.35-16.06 5.57-16.26L5.57-16.26Q5.08-16.65 4.66-17.11 4.25-17.58 3.61-17.58L3.61-17.58Q3.47-17.58 3.08-17.48L3.08-17.48Q2.98-18.36 2.34-18.73 1.71-19.09 0.98-19.38L0.98-19.38Q0.49-20.65-0.34-21.63-1.17-22.61-2.15-23.44L-2.15-23.44Q-2.05-23.73-2.05-23.88L-2.05-23.88Q-2.05-24.37-2.29-24.73-2.54-25.1-2.83-25.34L-2.83-25.34Q-3.52-27.54-3.52-29.64L-3.52-29.64Q-3.52-32.57-2.22-35.08-0.93-37.6 1.86-38.87L1.86-38.87Q1.9-39.26 2.12-39.55 2.34-39.84 2.39-40.23L2.39-40.23Q2.83-40.23 3.08-40.43 3.32-40.63 3.54-40.84 3.76-41.06 4-41.26 4.25-41.46 4.64-41.5L4.64-41.5Q6.49-43.12 8.59-44.12 10.69-45.12 12.89-46.19L12.89-46.19Q13.33-46.39 13.62-46.92L13.62-46.92 13.92-46.92Q14.4-46.92 14.67-47.14 14.94-47.36 15.48-47.27L15.48-47.27Q15.67-47.56 15.99-47.66 16.31-47.75 16.63-47.83 16.94-47.9 17.24-48.05 17.53-48.19 17.63-48.49L17.63-48.49 17.97-48.49Q18.8-48.49 19.58-48.75 20.36-49.02 21.14-49.37L21.14-49.37 21.48-49.37Q22.46-49.37 23.32-49.73 24.17-50.1 25.15-50.24L25.15-50.24Q25.54-50.34 25.93-50.29 26.32-50.24 26.71-50.24L26.71-50.24Q26.95-50.24 27.29-50.29 27.64-50.34 27.78-50.59L27.78-50.59 27.88-50.59Q28.17-50.59 28.22-50.39 28.27-50.2 28.52-50.2L28.52-50.2Q28.86-50.2 29.2-50.29 29.54-50.39 29.88-50.39L29.88-50.39Q31.35-50.39 32.79-50.1 34.23-49.8 35.64-49.56L35.64-49.56Q35.74-48.97 36.16-48.73 36.57-48.49 37.06-48.29L37.06-48.29 37.06-48.1Q37.06-47.71 37.26-47.46L37.26-47.46Q37.06-46.78 36.57-46.44 36.08-46.09 35.5-45.85L35.5-45.85Q35.74-45.65 35.79-45.31 35.84-44.97 35.84-44.68L35.84-44.68 35.84-44.09 35.6-44.14Q34.81-44.14 34.81-43.41L34.81-43.41Q34.18-43.8 33.42-43.9 32.67-43.99 31.93-43.99L31.93-43.99Q30.96-43.99 29.88-43.92 28.81-43.85 27.78-43.95L27.78-43.95Q27.39-43.46 26.81-43.24 26.22-43.02 25.63-43.02L25.63-43.02Q25-43.02 24.41-43.29 23.83-43.55 23.58-44.09L23.58-44.09Q23.34-44.19 23.14-44.19L23.14-44.19 22.71-44.19Q21.92-44.19 21.17-44.02 20.41-43.85 19.63-43.63 18.85-43.41 18.09-43.19 17.33-42.97 16.55-42.92L16.55-42.92Q16.26-42.53 15.77-42.38 15.28-42.24 14.99-41.85L14.99-41.85Q13.96-41.65 13.13-41.19 12.3-40.72 11.52-40.19L11.52-40.19 10.01-39.16Q9.28-38.67 8.35-38.33L8.35-38.33Q7.67-37.6 7.08-37.16 6.49-36.72 5.57-36.38L5.57-36.38Q4.98-36.18 4.91-35.79 4.83-35.4 4.49-35.01L4.49-35.01Q4.2-34.67 3.78-34.5 3.37-34.33 3.08-33.94L3.08-33.94Q2.83-33.59 2.71-33.13 2.59-32.67 2.44-32.23 2.29-31.79 2.1-31.37 1.9-30.96 1.51-30.66L1.51-30.66Q1.51-30.47 1.49-30.27 1.46-30.08 1.46-29.93L1.46-29.93Q1.46-29.25 1.64-28.54 1.81-27.83 1.86-27.15L1.86-27.15Q2.83-25.44 4.15-24.05 5.47-22.66 6.98-21.48 8.5-20.31 10.13-19.29 11.77-18.26 13.38-17.29L13.38-17.29Q13.96-17.33 14.45-17.16 14.94-16.99 15.48-16.94L15.48-16.94Q16.06-16.5 16.85-16.26L16.85-16.26 18.41-15.77Q19.19-15.53 19.92-15.21 20.65-14.89 21.14-14.36L21.14-14.36Q21.39-14.31 21.58-14.23 21.78-14.16 22.02-14.16L22.02-14.16Q22.31-14.16 22.36-14.36L22.36-14.36Q24.56-13.53 26.66-12.52 28.76-11.52 31.1-10.99L31.1-10.99Q32.03-10.21 33.15-9.62 34.28-9.03 35.4-8.42 36.52-7.81 37.55-7.1 38.57-6.4 39.36-5.42L39.36-5.42Q39.45-4.49 39.77-3.64 40.09-2.78 40.09-1.81ZM89.69-6.15L89.69-6.15Q89.45-5.37 89.55-4.59L89.55-4.59Q89.4-4.39 89.21-4.35 89.01-4.3 88.82-4.22 88.62-4.15 88.5-4.03 88.38-3.91 88.47-3.56L88.47-3.56Q86.86-3.47 85.4-2.88 83.93-2.29 82.52-1.61L82.52-1.61Q81.78-1.86 81.25-2.2 80.71-2.54 79.88-2.64L79.88-2.64Q79.05-4.3 78.34-6.13 77.63-7.96 77.63-9.81L77.63-9.81Q77.63-11.18 78.12-12.3L78.12-12.3Q78.12-13.77 78.37-15.19 78.61-16.6 78.93-17.99 79.25-19.38 79.49-20.8 79.73-22.22 79.73-23.68L79.73-23.68 79.73-24.76Q79.64-24.76 79.49-24.54 79.34-24.32 79.22-24.05 79.1-23.78 79-23.54 78.9-23.29 78.85-23.24L78.85-23.24Q78.02-22.61 77.56-21.66 77.1-20.7 76.56-19.87L76.56-19.87Q75.88-18.85 75.12-17.87 74.36-16.89 73.24-16.36L73.24-16.36 73.24-16.26Q73.24-16.02 73.09-15.92 72.95-15.82 73.04-15.43L73.04-15.43Q71.82-15.04 70.77-14.31 69.72-13.57 69.04-12.45L69.04-12.45Q68.06-12.21 67.21-11.79 66.35-11.38 65.48-10.89L65.48-10.89Q65.09-10.69 64.65-10.4 64.21-10.11 63.77-10.01L63.77-10.01Q63.38-9.86 62.72-9.81 62.06-9.77 61.35-9.72 60.64-9.67 59.96-9.67L59.96-9.67 58.88-9.67Q58.64-9.67 58.25-9.91 57.86-10.16 57.39-10.45 56.93-10.74 56.44-11.01 55.95-11.28 55.52-11.38L55.52-11.38Q55.12-12.65 54.42-13.65 53.71-14.65 52.93-15.67L52.93-15.67Q52.68-16.85 52.27-18.12 51.85-19.38 50.83-20.21L50.83-20.21Q51.07-20.56 51.07-21L51.07-21Q51.07-21.53 50.83-22.02 50.58-22.51 50.58-23.1L50.58-23.1Q50.58-23.49 50.63-23.68L50.63-23.68Q50.1-23.1 49.88-22.19 49.66-21.29 49.66-20.56L49.66-20.56Q49.66-19.97 49.8-19.48L49.8-19.48Q49.31-18.8 49.19-17.77 49.07-16.75 49.07-15.97L49.07-15.97Q49.07-14.99 49.22-14.06L49.22-14.06Q48.44-13.28 48.44-12.16L48.44-12.16Q48.44-11.52 48.73-11.04L48.73-11.04Q48.73-10.84 48.63-10.74 48.53-10.64 48.41-10.6 48.29-10.55 48.17-10.47 48.04-10.4 48.04-10.21L48.04-10.21Q48.04-9.96 48.07-9.67 48.09-9.38 48.09-9.08L48.09-9.08Q48.09-8.4 48.04-7.67 48-6.93 48-6.25L48-6.25Q48-4.83 48.26-4.22 48.53-3.61 48.95-3.32 49.36-3.03 49.85-2.73 50.34-2.44 50.83-1.61L50.83-1.61Q50.68-1.17 50.31-0.9 49.95-0.63 49.63-0.37 49.31-0.1 49.07 0.24 48.83 0.59 48.87 1.22L48.87 1.22 48.63 1.22Q48 1.22 47.41 1.42 46.82 1.61 46.19 1.61L46.19 1.61Q46.04 1.61 45.9 1.59 45.75 1.56 45.6 1.56L45.6 1.56 45.11 1.27Q44.87 1.12 44.63 1.12L44.63 1.12Q44.38 1.12 43.99 1.22L43.99 1.22Q43.31-0.98 42.94-3.32 42.58-5.66 42.58-7.91L42.58-7.91Q42.58-8.15 42.7-8.42 42.82-8.69 43.06-8.59L43.06-8.59 43.06-9.52Q43.06-11.04 43.33-12.48 43.6-13.92 43.6-15.48L43.6-15.48Q43.6-15.92 43.58-16.36 43.55-16.8 43.5-17.19L43.5-17.19Q43.75-18.02 44.02-18.87 44.28-19.73 44.28-20.65L44.28-20.65Q44.28-21.04 44.14-21.58L44.14-21.58Q44.53-21.88 44.72-22.34 44.92-22.8 45.02-23.36 45.11-23.93 45.16-24.46 45.21-25 45.26-25.44L45.26-25.44Q45.75-26.42 45.8-27.54 45.85-28.66 46.29-29.64L46.29-29.64Q46.24-29.83 46.24-30.32L46.24-30.32Q46.24-31.3 46.56-32.3 46.87-33.3 47.85-33.84L47.85-33.84Q48.73-33.5 49.9-33.5L49.9-33.5Q51.02-33.5 52.05-33.84L52.05-33.84Q52.34-33.74 52.59-33.62 52.83-33.5 53.1-33.37 53.37-33.25 53.66-33.18 53.95-33.11 54.34-33.15L54.34-33.15Q54.83-31.74 55.2-30.27 55.56-28.81 55.76-27.29L55.76-27.29Q55.86-26.66 55.83-25.93 55.81-25.2 55.91-24.56L55.91-24.56Q55.95-24.17 56.15-23.85 56.35-23.54 56.54-23.14 56.74-22.75 56.86-22.27 56.98-21.78 56.93-21.04L56.93-21.04Q57.47-19.78 58.13-18.63 58.79-17.48 59.57-16.36L59.57-16.36Q60.01-16.21 60.35-15.99 60.69-15.77 60.79-15.28L60.79-15.28Q61.23-15.28 61.57-15.14L61.57-15.14 62.4-14.89Q64.26-15.48 65.84-16.46 67.43-17.43 69.19-18.12L69.19-18.12Q71.34-20.21 72.9-22.78 74.46-25.34 76.02-27.88L76.02-27.88 76.02-28.96Q76.32-29.1 76.54-29.32 76.76-29.54 77.1-29.64L77.1-29.64Q77.15-30.22 77.37-30.79 77.59-31.35 77.85-31.86 78.12-32.37 78.32-32.89 78.51-33.4 78.51-33.98L78.51-33.98Q78.51-34.33 78.46-34.57L78.46-34.57Q79.2-35.3 80.22-35.3L80.22-35.3Q81.2-35.3 82.2-34.84 83.2-34.38 84.08-33.98L84.08-33.98Q84.62-32.81 84.89-31.52 85.15-30.22 85.25-28.86 85.35-27.49 85.35-26.12L85.35-26.12 85.35-22.66Q85.3-22.27 85.08-22.09 84.86-21.92 84.76-21.58L84.76-21.58 84.76-21.09Q84.76-20.85 84.71-20.61L84.71-20.61Q84.71-19.58 84.47-18.46L84.47-18.46Q84.23-17.04 83.86-15.6 83.49-14.16 83.49-12.7L83.49-12.7Q83.49-12.16 83.54-11.62 83.59-11.08 83.74-10.55L83.74-10.55Q83.49-10.11 83.49-9.42L83.49-9.42Q83.49-8.64 83.76-7.98 84.03-7.32 84.42-6.69L84.42-6.69Q85.1-6.69 85.79-6.74 86.47-6.79 87.2-6.79L87.2-6.79Q87.89-6.79 88.47-6.67 89.06-6.54 89.69-6.15Z" opacity="1" transform="matrix(1,0,0,1,0,0)" fill="#76acff" class="undefined-text-0" data-fill-palette-color="primary" id="text-0"></path></svg></g></svg></g></svg></g></svg></g><g></g></svg></g></svg></g></svg></g></svg></g><defs></defs></svg><rect width="320" height="360" fill="none" stroke="none" visibility="hidden"></rect></g></svg></g></svg>